<svg width="59" height="59" viewBox="0 0 59 59" fill="none" xmlns="http://www.w3.org/2000/svg">
<path fill-rule="evenodd" clip-rule="evenodd" d="M48.3661 2.41797C52.373 2.41797 55.621 5.66614 55.621 9.67293V48.3661C55.621 52.373 52.373 55.621 48.3661 55.621H9.67293C5.66614 55.621 2.41797 52.373 2.41797 48.3661V9.67293C2.41797 5.66614 5.66614 2.41797 9.67293 2.41797H48.3661ZM48.3661 7.25461C49.7017 7.25461 50.7844 8.33734 50.7844 9.67293V48.3661C50.7844 49.7017 49.7017 50.7844 48.3661 50.7844H36.2745V33.8559H41.2954C42.3362 33.8559 43.2603 33.1899 43.5897 32.2023L44.661 28.9883C45.0525 27.8137 44.1783 26.6009 42.9403 26.6009H36.2745V21.7643C36.2745 20.5552 37.4836 19.346 38.6928 19.346H43.5294C44.8651 19.346 45.9478 18.2633 45.9478 16.9277V15.2688C45.9478 14.4876 45.4489 13.7872 44.6934 13.5879C41.5234 12.7513 38.6928 12.7513 38.6928 12.7513C32.647 12.7513 29.0195 16.9277 29.0195 20.5552V26.6009H24.1829C22.8473 26.6009 21.7645 27.6836 21.7645 29.0193V31.4376C21.7645 32.7732 22.8472 33.8559 24.1829 33.8559H29.0195V50.7844H9.67293C8.33734 50.7844 7.25461 49.7017 7.25461 48.3661V9.67293C7.25461 8.33734 8.33734 7.25461 9.67293 7.25461H48.3661Z" fill="#49829D"/>
</svg>
