<svg width="65" height="65" viewBox="0 0 65 65" fill="none" xmlns="http://www.w3.org/2000/svg">
<path fill-rule="evenodd" clip-rule="evenodd" d="M32.1358 48.2032C41.0096 48.2032 48.2032 41.0096 48.2032 32.1358C48.2032 23.262 41.0096 16.0684 32.1358 16.0684C23.262 16.0684 16.0684 23.262 16.0684 32.1358C16.0684 41.0096 23.262 48.2032 32.1358 48.2032ZM32.1358 42.8474C38.0516 42.8474 42.8474 38.0516 42.8474 32.1358C42.8474 26.2199 38.0516 21.4242 32.1358 21.4242C26.2199 21.4242 21.4242 26.2199 21.4242 32.1358C21.4242 38.0516 26.2199 42.8474 32.1358 42.8474Z" fill="#49829D"/>
<path d="M48.2013 13.3887C46.7223 13.3887 45.5234 14.5876 45.5234 16.0666C45.5234 17.5455 46.7223 18.7445 48.2013 18.7445C49.6804 18.7445 50.8792 17.5455 50.8792 16.0666C50.8792 14.5876 49.6804 13.3887 48.2013 13.3887Z" fill="#49829D"/>
<path fill-rule="evenodd" clip-rule="evenodd" d="M4.42898 11.4507C2.67773 14.8877 2.67773 19.387 2.67773 28.3856V35.8838C2.67773 44.8823 2.67773 49.3818 4.42898 52.8186C5.96942 55.8419 8.42741 58.3 11.4507 59.8403C14.8877 61.5917 19.387 61.5917 28.3856 61.5917H35.8838C44.8823 61.5917 49.3818 61.5917 52.8186 59.8403C55.8419 58.3 58.3 55.8419 59.8403 52.8186C61.5917 49.3818 61.5917 44.8823 61.5917 35.8838V28.3856C61.5917 19.387 61.5917 14.8877 59.8403 11.4507C58.3 8.42741 55.8419 5.96942 52.8186 4.42898C49.3818 2.67773 44.8823 2.67773 35.8838 2.67773H28.3856C19.387 2.67773 14.8877 2.67773 11.4507 4.42898C8.42741 5.96942 5.96942 8.42741 4.42898 11.4507ZM35.8838 8.03355H28.3856C23.798 8.03355 20.6793 8.03772 18.2687 8.23466C15.9206 8.4265 14.7198 8.77423 13.8822 9.20103C11.8667 10.228 10.228 11.8667 9.20103 13.8822C8.77423 14.7198 8.4265 15.9206 8.23466 18.2687C8.03772 20.6793 8.03355 23.798 8.03355 28.3856V35.8838C8.03355 40.4716 8.03772 43.59 8.23466 46.0006C8.4265 48.3489 8.77423 49.5497 9.20103 50.3873C10.228 52.4027 11.8667 54.0413 13.8822 55.0683C14.7198 55.4951 15.9206 55.843 18.2687 56.0347C20.6793 56.2316 23.798 56.2359 28.3856 56.2359H35.8838C40.4716 56.2359 43.59 56.2316 46.0006 56.0347C48.3489 55.843 49.5497 55.4951 50.3873 55.0683C52.4027 54.0413 54.0413 52.4027 55.0683 50.3873C55.4951 49.5497 55.843 48.3489 56.0347 46.0006C56.2316 43.59 56.2359 40.4716 56.2359 35.8838V28.3856C56.2359 23.798 56.2316 20.6793 56.0347 18.2687C55.843 15.9206 55.4951 14.7198 55.0683 13.8822C54.0413 11.8667 52.4027 10.228 50.3873 9.20103C49.5497 8.77423 48.3489 8.4265 46.0006 8.23466C43.59 8.03772 40.4716 8.03355 35.8838 8.03355Z" fill="#49829D"/>
</svg>
