<svg width="65" height="65" viewBox="0 0 65 65" fill="none" xmlns="http://www.w3.org/2000/svg">
<path d="M17.4055 21.4224C19.624 21.4224 21.4224 19.624 21.4224 17.4055C21.4224 15.1871 19.624 13.3887 17.4055 13.3887C15.1871 13.3887 13.3887 15.1871 13.3887 17.4055C13.3887 19.624 15.1871 21.4224 17.4055 21.4224Z" fill="#49829D"/>
<path d="M13.3887 26.7795C13.3887 25.3005 14.5876 24.1016 16.0666 24.1016H18.7445C20.2234 24.1016 21.4224 25.3005 21.4224 26.7795V48.2027C21.4224 49.6817 20.2234 50.8806 18.7445 50.8806H16.0666C14.5876 50.8806 13.3887 49.6817 13.3887 48.2027V26.7795Z" fill="#49829D"/>
<path d="M29.4572 50.8806H32.1351C33.6141 50.8806 34.813 49.6817 34.813 48.2027V36.1521C34.813 32.1353 42.8467 29.4574 42.8467 34.8132V48.2038C42.8467 49.6828 44.0456 50.8806 45.5246 50.8806H48.2025C49.6816 50.8806 50.8805 49.6817 50.8805 48.2027V32.1353C50.8805 26.7795 46.8636 24.1016 41.5078 24.1016C36.152 24.1016 34.813 28.1184 34.813 28.1184V26.7795C34.813 25.3005 33.6141 24.1016 32.1351 24.1016H29.4572C27.9782 24.1016 26.7793 25.3005 26.7793 26.7795V48.2027C26.7793 49.6817 27.9782 50.8806 29.4572 50.8806Z" fill="#49829D"/>
<path fill-rule="evenodd" clip-rule="evenodd" d="M53.5579 2.67773C57.995 2.67773 61.5917 6.27456 61.5917 10.7115V53.5579C61.5917 57.995 57.995 61.5917 53.5579 61.5917H10.7115C6.27456 61.5917 2.67773 57.995 2.67773 53.5579V10.7115C2.67773 6.27456 6.27456 2.67773 10.7115 2.67773H53.5579ZM53.5579 8.03355C55.037 8.03355 56.2359 9.2325 56.2359 10.7115V53.5579C56.2359 55.037 55.037 56.2359 53.5579 56.2359H10.7115C9.2325 56.2359 8.03355 55.037 8.03355 53.5579V10.7115C8.03355 9.2325 9.2325 8.03355 10.7115 8.03355H53.5579Z" fill="#49829D"/>
</svg>
