<svg width="58" height="58" viewBox="0 0 58 58" fill="none" xmlns="http://www.w3.org/2000/svg">
<path d="M45.0394 26.0099C39.2285 23.0809 32.3736 21.3645 25.1182 21.3645C20.9893 21.3645 16.9909 21.9191 13.1919 22.9613L13.5073 22.887C13.2844 22.9595 13.027 23.0012 12.7606 23.0012C11.3831 23.0012 10.2648 21.8847 10.2648 20.5054C10.2648 19.3943 10.9916 18.4536 11.9939 18.1292L12.012 18.1238C21.6599 15.2691 37.561 15.8128 47.6204 21.7959C48.3925 22.2635 48.9 23.0991 48.9 24.0524C48.9 24.5219 48.7767 24.9623 48.5629 25.3429L48.5701 25.3303C48.0445 25.9556 47.2633 26.3507 46.3879 26.3507C45.8931 26.3507 45.4291 26.2238 45.0249 26.0027L45.0394 26.0099ZM44.7675 33.6206C44.4032 34.2224 43.7507 34.6175 43.0076 34.6175C42.5998 34.6175 42.2209 34.4997 41.9019 34.2949L41.911 34.3003C36.9466 31.4601 30.9979 29.7872 24.6596 29.7872C21.1706 29.7872 17.8011 30.2947 14.6202 31.239L14.8685 31.1756C14.6854 31.2336 14.4752 31.268 14.2577 31.268C13.1176 31.268 12.1933 30.3436 12.1933 29.2036C12.1933 28.281 12.7968 27.5016 13.6306 27.2352L13.6451 27.2316C16.9148 26.2619 20.6739 25.7036 24.5618 25.7036C31.7918 25.7036 38.5724 27.6321 44.4141 31.0052L44.2219 30.9037C44.7603 31.2499 45.1119 31.8462 45.1119 32.5241C45.1119 32.9355 44.9832 33.3161 44.7639 33.6279L44.7675 33.6206ZM41.505 41.0954C41.2204 41.5884 40.6966 41.9146 40.0967 41.9146C39.7596 41.9146 39.446 41.8113 39.1868 41.6355L39.1922 41.6391C34.8549 39.1995 29.6694 37.7622 24.1503 37.7622C20.9857 37.7622 17.9298 38.2353 15.0516 39.1125L15.2727 39.0545C15.1512 39.0853 15.0099 39.1053 14.8667 39.1053C13.9387 39.1053 13.1865 38.3531 13.1865 37.4251C13.1865 36.6421 13.723 35.9841 14.448 35.7974L14.4589 35.7956C17.3244 34.9438 20.6159 34.4544 24.0216 34.4544C30.1878 34.4544 35.9769 36.0602 40.9975 38.8769L40.8217 38.7863C41.3691 39.0581 41.7388 39.6128 41.7388 40.2526C41.7388 40.5643 41.6518 40.8561 41.4996 41.1026L41.505 41.0954ZM29.0006 1.82031C13.9894 1.82031 1.82031 13.9894 1.82031 29.0006C1.82031 44.0117 13.9894 56.1808 29.0006 56.1808C44.0117 56.1808 56.1808 44.0117 56.1808 29.0006C56.1355 14.0076 43.9936 1.86563 29.006 1.82031H29.0006Z" fill="#49829D"/>
</svg>
