<svg width="63" height="63" viewBox="0 0 63 63" fill="none" xmlns="http://www.w3.org/2000/svg">
<g clip-path="url(#clip0_53_548)">
<path d="M60.1208 48.0998C58.976 50.6732 56.023 53.0039 53.2501 53.5186C52.9663 53.5714 46.1895 54.7945 31.3305 54.7945H31.2913C16.4343 54.7945 9.65158 53.5714 9.36979 53.5205C6.59681 53.0039 3.64185 50.6732 2.49508 48.0979C2.39332 47.8689 0.00195312 42.3621 0.00195312 31.3113C0.00195312 20.2605 2.39332 14.7517 2.49508 14.5228C3.64185 11.9475 6.59681 9.61872 9.36979 9.10404C9.65158 9.05121 16.4343 7.82812 31.2913 7.82812C46.1895 7.82812 52.9663 9.05121 53.2481 9.10209C56.023 9.61872 58.976 11.9475 60.1228 14.5208C60.2246 14.7517 62.6218 20.2605 62.6218 31.3113C62.6218 42.3621 60.2246 47.8689 60.1208 48.0998ZM56.5416 16.1059C55.9311 14.7341 54.0172 13.2273 52.5338 12.9514C52.4712 12.9396 45.7648 11.742 31.3305 11.742C16.859 11.742 10.1467 12.9396 10.0821 12.9514C8.59875 13.2273 6.68683 14.7341 6.07431 16.1138C6.05474 16.1549 3.91777 21.192 3.91777 31.3113C3.91777 41.4286 6.05474 46.4658 6.07823 46.5167C6.68683 47.8885 8.59875 49.3953 10.0841 49.6712C10.1467 49.683 16.859 50.8806 31.2913 50.8806H31.3305C45.7648 50.8806 52.4712 49.683 52.5358 49.6712C54.0191 49.3953 55.9311 47.8885 56.5436 46.5088C56.5631 46.4658 58.704 41.4286 58.704 31.3113C58.704 21.194 56.5631 16.1549 56.5416 16.1059ZM26.4988 42.7515C26.1818 42.9531 25.8178 43.0529 25.4558 43.0529C25.1309 43.0529 24.8061 42.9727 24.5106 42.8083C23.8863 42.4639 23.4988 41.8083 23.4988 41.096V21.5266C23.4988 20.8163 23.8824 20.1627 24.5027 19.8182C25.1231 19.4719 25.8843 19.4875 26.4851 19.8613L42.1777 29.5598C42.7511 29.9141 43.1034 30.5403 43.1053 31.2154C43.1073 31.8906 42.7629 32.5207 42.1914 32.8788L26.4988 42.7515ZM27.4146 25.0374V37.552L37.4498 31.2389L27.4146 25.0374Z" fill="#49829D"/>
</g>
<defs>
<clipPath id="clip0_53_548">
<rect width="62.6218" height="62.6218" fill="white"/>
</clipPath>
</defs>
</svg>
